<?xml version="1.0" encoding="utf-8"?>
<!-- Generator: Adobe Illustrator 18.1.1, SVG Export Plug-In . SVG Version: 6.00 Build 0)  -->
<svg version="1.1"
	 id="svg2" xmlns:cc="http://creativecommons.org/ns#" xmlns:dc="http://purl.org/dc/elements/1.1/" xmlns:inkscape="http://www.inkscape.org/namespaces/inkscape" xmlns:sodipodi="http://sodipodi.sourceforge.net/DTD/sodipodi-0.dtd" xmlns:svg="http://www.w3.org/2000/svg" xmlns:rdf="http://www.w3.org/1999/02/22-rdf-syntax-ns#"
	 xmlns="http://www.w3.org/2000/svg" xmlns:xlink="http://www.w3.org/1999/xlink" x="0px" y="0px" viewBox="7 197 400 400"
	 enable-background="new 7 197 400 400" xml:space="preserve">
<g id="layer1" transform="translate(0,-540.36218)">
	<path id="text2985" fill="#FFFFFF" d="M207,737.4c-110.2,0-200,89.8-200,200s89.8,200,200,200s200-89.8,200-200
		S317.2,737.4,207,737.4z M207,783.9c85,0,153.5,68.5,153.5,153.5S292,1090.8,207,1090.8S53.5,1022.4,53.5,937.4
		S122,783.9,207,783.9z M211.2,834.9c-39.1-0.8-78.5,25.4-88.4,64c-10.2,33.6-7.4,72.2,10.4,102.6c15.4,24.3,44,38.4,72.6,38
		c19.6,0.7,40.2-1.4,58-9.7c8.2-7.8,2.3-20.1,4.6-29.7c0.7-6.3-5.2-13.3-11.8-10.3c-22.4,5.8-47.8,11.7-69.4,0.7
		c-18.8-11.1-23.8-35.1-23.1-55.4c0.1-19.8,7.1-42.1,25.7-51.8c19.5-9.9,42.7-4.9,61.7,3.6c8.9,1.2,15.4-7.1,16.9-15
		c3.1-6.7,6.6-13.3,9.3-20.2C257.8,840,234.4,834.4,211.2,834.9z"/>
</g>
</svg>
