<?xml version="1.0" encoding="utf-8"?>
<!-- Generator: Adobe Illustrator 19.1.0, SVG Export Plug-In . SVG Version: 6.00 Build 0)  -->
<svg version="1.1" id="Layer_1" xmlns="http://www.w3.org/2000/svg" xmlns:xlink="http://www.w3.org/1999/xlink" x="0px" y="0px"
	 viewBox="0 0 261 27" style="enable-background:new 0 0 261 27;" xml:space="preserve">
<style type="text/css">
	.st0{fill:#FFFFFF;}
</style>
<g>
	<g>
		<path d="M17,21.2l-5.5-7.3l-1.7,0l0,7.3l-2.3,0l0-15.5l5.5,0c1.3,0,2.3,0.3,3,0.9c1,0.8,1.5,2,1.5,3.2c0,1.2-0.6,2.4-1.5,3.2
			c-0.5,0.4-1.1,0.7-1.8,0.8l5.6,7.4H17z M9.8,11.7l3.1,0c0.9,0,1.5-0.2,1.8-0.6c0.4-0.4,0.6-0.9,0.6-1.4s-0.2-1-0.6-1.4
			c-0.4-0.4-1-0.6-1.8-0.6H9.8V11.7z"/>
	</g>
	<g>
		<path d="M30.4,21.4c-1.9,0-3.6-0.7-4.8-2c-1.1-1.2-1.6-2.7-1.6-4.6V5.6l2.2,0l0,9.2c0,1.4,0.3,2.3,1,3c0.8,0.9,1.9,1.4,3.2,1.4
			c1.3,0,2.4-0.5,3.2-1.4c0.7-0.7,1-1.7,1-3V5.6l2.2,0l0,9.1c0,1.9-0.5,3.4-1.6,4.6C34,20.6,32.2,21.4,30.4,21.4z"/>
	</g>
	<g>
		<polygon points="46.8,21.2 46.7,7.7 42.6,7.8 42.5,5.6 53.2,5.6 53.2,7.7 49,7.8 49,21.2 		"/>
	</g>
	<g>
		<polygon points="69.9,21.2 69.9,13.8 61.3,13.9 61.3,21.1 59.1,21.2 59.1,5.6 61.3,5.6 61.3,11.7 69.9,11.7 69.9,5.6 72.1,5.6 
			72.2,21.2 		"/>
	</g>
	<g>
		<path d="M87.7,21.4c-4.7,0-8.1-3.4-8.1-8c0-4.6,3.4-8,7.9-8c2.2,0,4.3,0.9,5.7,2.4l-1.5,1.5c-1-1.1-2.6-1.7-4.2-1.7
			c-3.2,0-5.6,2.5-5.6,5.8c0,3.4,2.4,5.8,5.8,5.8c2.3,0,3.8-1.4,4.4-2.2l1.6,1.4C92.4,20.3,90.1,21.4,87.7,21.4z"/>
	</g>
	<g>
		<polygon points="110.7,21.4 110.7,14.1 102.1,14.1 102.1,21.4 99.8,21.4 99.8,5.9 102.1,5.8 102.1,12 110.7,11.9 110.7,5.9 
			112.9,5.8 112.9,21.4 		"/>
	</g>
	<g>
		<path d="M130.3,21.4l-1.7-4l-6.5,0l-1.6,4l-2.3,0l6.4-15.5l1.6,0l6.5,15.6H130.3z M123,15.3l4.8,0l-2.4-5.6L123,15.3z"/>
	</g>
	<g>
		<path d="M144.2,21.6c-4.4,0-7.8-3.4-7.8-8s3.3-8,7.8-8c4.4,0,7.8,3.4,7.8,8S148.6,21.6,144.2,21.6z M144.2,7.8
			c-3.1,0-5.5,2.5-5.5,5.8c0,3.3,2.4,5.8,5.5,5.8c3.1,0,5.5-2.5,5.5-5.8C149.7,10.3,147.3,7.8,144.2,7.8z"/>
	</g>
	<g>
		<path d="M164.2,21.6c-0.6,0-1.1,0-1.6,0c-0.5,0-0.9-0.1-1.3-0.1c-0.4-0.1-0.8-0.1-1.1-0.2l-0.3-0.1c-0.3-0.1-0.5-0.1-0.8-0.2
			c-0.1,0-0.2-0.1-0.2-0.1c0,0,0-0.1,0-0.2l0-2.8c0-0.6,0-1.1,0-1.7V15c0-0.2,0.1-0.3,0.2-0.3s0.2,0.1,0.2,0.3c0,1.1,0.1,2,0.3,2.7
			c0.2,0.8,0.5,1.5,0.9,2c0.4,0.5,0.9,0.9,1.5,1.2c0.6,0.3,1.4,0.4,2.3,0.4c1.2,0,2-0.3,2.6-0.8s0.8-1.3,0.8-2.1
			c0-0.5-0.1-1-0.4-1.4c-0.3-0.4-0.6-0.7-1-1c-0.4-0.3-0.9-0.6-1.4-0.8c-0.5-0.2-1.1-0.5-1.6-0.7c-0.6-0.2-1.2-0.5-1.7-0.8
			c-0.6-0.3-1.1-0.6-1.5-0.9c-0.4-0.3-0.8-0.7-1.1-1.2c-0.3-0.4-0.4-1-0.4-1.6c0-0.7,0.1-1.3,0.4-1.8c0.3-0.5,0.6-1,1.1-1.3
			c0.5-0.4,1-0.6,1.6-0.8c0.6-0.2,1.3-0.3,2-0.3c1.1,0,2,0.1,2.7,0.2c0.7,0.1,1.3,0.2,2,0.4c0.1,0.1,0.1,0.1,0.2,0.1
			c0,0,0.1,0.1,0.1,0.2c0,0.1,0,0.3,0,0.6l-0.1,1l0,0.2c0,0.4,0,0.8,0,1.4c0,0.6,0,1.4,0,2.3c0,0.2-0.1,0.3-0.1,0.3
			c-0.1,0-0.2,0-0.2-0.3c0-0.9,0-1.7-0.1-2.4c-0.1-0.7-0.3-1.4-0.6-1.9c-0.3-0.5-0.8-0.9-1.4-1.3c-0.6-0.3-1.4-0.5-2.4-0.5
			c-0.7,0-1.2,0.1-1.7,0.2c-0.5,0.1-0.8,0.3-1.1,0.6c-0.3,0.3-0.5,0.6-0.6,0.9C160,8.1,160,8.5,160,8.9c0,0.5,0.1,1,0.4,1.4
			c0.2,0.4,0.6,0.7,1,1c0.4,0.3,0.9,0.6,1.4,0.8c0.5,0.3,1.1,0.5,1.6,0.7c0.6,0.2,1.1,0.5,1.7,0.7c0.5,0.2,1,0.6,1.5,0.9
			c0.4,0.3,0.8,0.7,1,1.2c0.3,0.4,0.4,1,0.4,1.6c0,0.6-0.1,1.2-0.4,1.8c-0.3,0.5-0.6,1-1,1.4c-0.4,0.4-0.9,0.7-1.5,0.9
			C165.5,21.5,164.8,21.6,164.2,21.6z"/>
	</g>
	<g>
		<path d="M183.1,21.4c-0.2,0-0.4,0-0.6,0l-1.4,0c-0.2,0-0.3,0-0.4,0h0c-0.1,0-0.2,0-0.4,0l-1.4,0c-0.3,0-0.4,0-0.6,0
			c-0.1,0-0.2-0.1-0.2-0.1c0-0.1,0.1-0.1,0.2-0.1h0.4c0.3,0,0.5,0,0.6-0.1c0.1-0.1,0.3-0.3,0.3-0.6c0.1-0.3,0.1-0.8,0.1-1.6
			c0-0.7,0-1.8,0-3.2V5.9C179.6,6,179.3,6,179,6h-0.8c-0.6,0-1.1,0.1-1.5,0.3c-0.4,0.2-0.7,0.5-1,0.9c-0.3,0.4-0.5,0.9-0.7,1.4
			c-0.2,0.6-0.3,1.3-0.4,1.9l-0.2,1.3c0,0.1-0.1,0.1-0.2,0.1h0l-0.1,0c0,0,0-0.1,0-0.1l0.2-1.3c0.1-0.6,0.1-1.2,0.1-1.7
			c0,0,0-1.1,0-1.5c0-0.4,0-0.8,0-1c0-0.4,0-0.4,0.1-0.4c0.1,0,0.3-0.1,0.8-0.1c0.4,0,1-0.1,1.8-0.1c0.1,0,0.3,0,0.6,0
			c0.3,0,0.6,0,1,0c0.3,0,0.7,0,1,0c0.4,0,0.7,0,0.9,0c0,0,0,0,0,0c0.2,0,0.4,0,0.6,0c0.2,0,0.4,0,0.7,0c0,0,0,0,0,0
			c0.2,0,0.5,0,0.9,0c0.3,0,0.8,0,1.3,0c0.8,0,1.4,0,1.8,0.1c0.6,0,0.8,0.1,0.8,0.1c0,0,0.1,0.1,0.1,0.4c0,0.2,0,1.1,0,1.1
			c0,0.4,0,0.8,0,1.3c0,0.6,0.1,1.2,0.2,1.7l0.2,1.3l0,0.1c0,0-0.1,0-0.1,0c-0.1,0-0.1,0-0.2-0.1l-0.2-1.3c-0.1-0.8-0.3-1.4-0.4-1.9
			c-0.2-0.6-0.4-1-0.6-1.4c-0.3-0.4-0.6-0.7-1-0.9c-0.4-0.2-0.9-0.3-1.5-0.3h-1.7l0,9.6c0,1.4,0,2.4,0,3.2c0,0.8,0.1,1.3,0.2,1.7
			c0.1,0.4,0.2,0.6,0.3,0.6c0.2,0.1,0.4,0.1,0.6,0.1h0.4c0.1,0,0.2,0.1,0.2,0.1C183.3,21.3,183.2,21.4,183.1,21.4z"/>
	</g>
	<g>
		<path d="M198.4,21.6c-0.8,0-1.5-0.1-2.1-0.4c-0.7-0.3-1.2-0.6-1.6-1.2c-0.4-0.5-0.8-1.1-1-1.8c-0.2-0.7-0.4-1.5-0.4-2.5v-4.1
			c0-1.4,0-2.4,0-3.2c0-0.8-0.1-1.3-0.2-1.7c-0.1-0.3-0.2-0.5-0.3-0.6c-0.1-0.1-0.3-0.1-0.6-0.1h-0.3c-0.1,0-0.2-0.1-0.2-0.1
			c0,0,0-0.1,0.2-0.1c0.1,0,0.6,0,0.6,0l0.7,0c0,0,1,0,1,0l1.1,0l0.7,0c0.3,0,0.5,0,0.6,0c0.2,0,0.2,0.1,0.2,0.1
			c0,0.1-0.1,0.1-0.2,0.1h-0.4c-0.3,0-0.5,0-0.6,0.1c-0.1,0.1-0.3,0.3-0.3,0.6c-0.1,0.3-0.1,0.9-0.2,1.7c0,0.7,0,1.8,0,3.2l0,3.5
			c0,1.8,0.4,3.2,1.2,4.2c0.8,1,1.9,1.5,3.3,1.5c0.6,0,1.1-0.1,1.6-0.4c0.5-0.2,0.9-0.6,1.3-1c0.4-0.4,0.7-1,0.9-1.5
			c0.2-0.6,0.3-1.2,0.3-1.9v-4.2c0-1.3-0.1-2.4-0.2-3.2c-0.1-0.7-0.3-1.3-0.6-1.6c-0.2-0.3-0.5-0.5-0.8-0.6
			c-0.3-0.1-0.5-0.1-0.8-0.1H201c-0.1,0-0.2-0.1-0.2-0.1c0-0.1,0-0.1,0.2-0.1c0.1,0,0.7,0,0.7,0l0.8,0l1.3,0c0.2,0,0.4,0,0.8,0
			c0.4,0,0.7,0,1,0c0.1,0,0.2,0.1,0.2,0.1c0,0.1,0,0.1-0.2,0.1h-0.2c-0.3,0-0.5,0-0.6,0.1c-0.2,0.1-0.3,0.3-0.4,0.6
			c-0.1,0.4-0.2,0.9-0.2,1.6c-0.1,0.7-0.1,1.8-0.1,3.2v4.2c0,0.7-0.1,1.5-0.4,2.1c-0.3,0.7-0.6,1.3-1.1,1.8c-0.5,0.5-1,0.9-1.7,1.3
			C200.1,21.5,199.3,21.6,198.4,21.6z"/>
	</g>
	<g>
		<path d="M215.5,21.4c-0.4,0-0.7,0-1.1,0c-0.4,0-0.8,0-1.3,0l-0.1,0l-3,0.1c-0.2,0-0.2-0.1-0.2-0.1c0-0.1,0.1-0.1,0.2-0.1
			c0.3,0,0.6,0,0.7-0.1c0.2,0,0.3-0.2,0.4-0.3c0.1-0.2,0.2-0.5,0.3-0.9c0.1-0.5,0.1-1,0.2-1.6c0-0.4,0-0.8,0.1-1.4
			c0-0.5,0-1.1,0-1.6l0-1.5c0-0.5,0-0.8,0-1.1c0-0.2,0-0.4,0-0.7l0-2.7c0-0.4,0-0.8,0-1.1c0-0.5,0-0.9,0-1.2c0-0.3-0.1-0.5-0.2-0.6
			c-0.1-0.1-0.2-0.2-0.4-0.2c-0.2,0-0.5,0-0.8,0c-0.1,0-0.2-0.1-0.2-0.1c0-0.1,0-0.1,0.2-0.1l0.4,0c0.2,0,0.5,0,0.8,0
			c0.3,0,0.6,0,0.8,0l0.5,0l0.6,0c0.3,0,0.7,0,1,0c0,0,0,0,0,0c0.4,0,0.7,0,1.1,0c0,0,0.6,0,0.8,0c1.1,0,2.2,0.2,3.2,0.6
			c1,0.4,1.9,0.9,2.6,1.6c0.8,0.7,1.4,1.5,1.8,2.5c0.4,1,0.7,2,0.7,3.2c0,1.2-0.2,2.2-0.6,3.1c-0.4,0.9-1,1.8-1.7,2.5
			c-0.7,0.7-1.6,1.2-2.6,1.6c-1,0.4-2.1,0.6-3.2,0.6H215.5z M213.7,21c0.3,0,0.6,0,0.9,0c0.3,0,0.6,0,0.9,0c0.3,0,0.6,0,0.9,0
			c1,0,1.8-0.2,2.6-0.5c0.8-0.4,1.4-0.8,1.9-1.5c0.5-0.6,0.9-1.4,1.2-2.3c0.3-0.9,0.4-2,0.4-3.1c0-1.1-0.2-2.2-0.5-3.1
			c-0.3-0.9-0.7-1.7-1.3-2.4c-0.6-0.6-1.2-1.1-2-1.5c-0.8-0.4-1.6-0.5-2.6-0.5h-1.4c-0.4,0-0.7,0-0.8,0.1c-0.2,0.1-0.3,0.3-0.4,0.6
			c-0.1,0.4-0.2,0.9-0.2,1.6c0,0.7,0,1.8,0,3.2v6.1c0,0.9,0,1.6-0.1,2.1c0,0.6-0.1,1-0.1,1.1c0.1,0,0.2,0,0.3,0
			C213.6,21,213.6,21,213.7,21z"/>
	</g>
	<g>
		<path d="M233.7,21.4c-0.2,0-0.4,0-0.6,0l-1.4,0c-0.2,0-0.3,0-0.4,0c-0.1,0-0.2,0-0.4,0l-1.4,0c-0.3,0-0.5,0-0.6,0
			c-0.1,0-0.2-0.1-0.2-0.1c0-0.1,0.1-0.1,0.2-0.1h0.5c0.3,0,0.5,0,0.6-0.1c0.1-0.1,0.3-0.3,0.3-0.6c0.1-0.3,0.1-0.9,0.2-1.7
			c0-0.7,0-1.8,0-3.2v-3.9c0-1.4,0-2.4,0-3.2c0-0.8-0.1-1.3-0.2-1.6c-0.1-0.3-0.2-0.5-0.3-0.6c-0.2-0.1-0.4-0.1-0.6-0.1h-0.5
			c-0.1,0-0.2-0.1-0.2-0.1c0,0,0-0.1,0.2-0.1c0.1,0,0.6,0,0.6,0l0.8,0l1.1,0c0.1,0,1.1,0,1.1,0l0.8,0c0.2,0,0.4,0,0.5,0
			c0.1,0,0.2,0.1,0.2,0.1c0,0.1,0,0.1-0.2,0.1h-0.5c-0.3,0-0.5,0-0.6,0.1c-0.1,0.1-0.3,0.3-0.3,0.6c-0.1,0.3-0.1,0.9-0.2,1.7
			c0,0.7,0,1.8,0,3.2v3.9c0,1.4,0,2.4,0,3.2c0,0.8,0.1,1.3,0.2,1.7c0.1,0.4,0.2,0.6,0.3,0.6c0.2,0.1,0.4,0.1,0.6,0.1h0.5
			c0.1,0,0.2,0.1,0.2,0.1C233.9,21.3,233.8,21.4,233.7,21.4z"/>
	</g>
	<g>
		<path d="M245.8,21.6c-1,0-2-0.2-2.9-0.6c-0.9-0.4-1.7-1-2.4-1.7c-0.7-0.7-1.2-1.5-1.7-2.5c-0.4-1-0.6-2-0.6-3.2
			c0-1.2,0.2-2.2,0.6-3.2c0.4-1,1-1.8,1.7-2.5c0.7-0.7,1.5-1.2,2.5-1.6c0.9-0.4,1.9-0.6,2.9-0.6c1,0,2,0.2,2.9,0.6
			c0.9,0.4,1.7,1,2.4,1.7c0.7,0.7,1.3,1.6,1.7,2.5c0.4,1,0.6,2,0.6,3.2c0,1.2-0.2,2.2-0.6,3.2c-0.4,1-1,1.8-1.7,2.5
			c-0.7,0.7-1.5,1.3-2.5,1.7C247.8,21.4,246.8,21.6,245.8,21.6z M246,6c-0.9,0-1.7,0.2-2.4,0.6c-0.7,0.4-1.3,0.9-1.8,1.6
			c-0.5,0.7-0.9,1.5-1.2,2.4c-0.3,0.9-0.4,2-0.4,3.1c0,1.1,0.1,2.2,0.4,3.1c0.2,0.9,0.6,1.8,1.1,2.4c0.5,0.7,1,1.2,1.7,1.6
			c0.7,0.4,1.4,0.6,2.3,0.6c0.9,0,1.7-0.2,2.4-0.6c0.7-0.4,1.3-0.9,1.9-1.6c0.5-0.7,0.9-1.5,1.2-2.4c0.3-0.9,0.4-2,0.4-3.1
			c0-1.1-0.1-2.2-0.4-3.1c-0.3-1-0.6-1.8-1.1-2.4c-0.5-0.7-1.1-1.2-1.7-1.6C247.6,6.2,246.9,6,246,6z"/>
	</g>
</g>
</svg>
