<?xml version="1.0" encoding="utf-8"?>
<!-- Generator: Adobe Illustrator 18.1.1, SVG Export Plug-In . SVG Version: 6.00 Build 0)  -->
<svg version="1.1" id="Layer_1" xmlns="http://www.w3.org/2000/svg" xmlns:xlink="http://www.w3.org/1999/xlink" x="0px" y="0px"
	 viewBox="-0.1 190.1 612.2 411.7" enable-background="new -0.1 190.1 612.2 411.7" xml:space="preserve">
<g>
	<path fill="#FFFFFF" d="M599.4,601.8H12.6c-6.9,0-12.6-5.6-12.6-12.6V202.7c0-6.9,5.6-12.6,12.6-12.6h586.8
		c6.9,0,12.6,5.6,12.6,12.6v386.4C612,596.2,606.4,601.8,599.4,601.8z M25.2,576.6h561.6V215.4H25.2V576.6z"/>
	<path fill="#FFFFFF" d="M306,408.6c-2.4,0-4.8-0.7-6.9-2L5.6,213.2c-5.9-3.8-7.4-11.6-3.6-17.5c3.8-5.9,11.6-7.4,17.5-3.6
		L306,380.9l286.5-188.7c5.9-3.8,13.6-2.3,17.5,3.6c3.8,5.9,2.3,13.6-3.6,17.5L312.9,406.5C310.8,408,308.4,408.6,306,408.6z"/>
	<path fill="#FFFFFF" d="M12.7,601.8c-3.5,0-7.1-1.4-9.6-4.3c-4.5-5.3-4.1-13.3,1.2-17.8l252.8-220.1c5.3-4.5,13.3-4.1,17.8,1.2
		c4.5,5.3,4.1,13.3-1.2,17.8L20.9,598.7C18.5,600.9,15.5,601.8,12.7,601.8z"/>
	<path fill="#FFFFFF" d="M599.3,601.8c-3,0-5.9-1.1-8.2-3.1L338.4,378.8c-5.3-4.5-5.9-12.6-1.2-17.8c4.5-5.3,12.6-5.9,17.8-1.2
		l252.8,220.1c5.3,4.5,5.9,12.6,1.2,17.8C606.4,600.4,602.9,601.8,599.3,601.8z"/>
</g>
</svg>
